<svg xmlns="http://www.w3.org/2000/svg" width="580" height="304" viewBox="0 0 580 304" role="img" aria-labelledby="title desc">
<title id="title">Cuepoint — A LOCAL-FIRST AI STUDIO</title>
<desc id="desc">Original geometric artwork for Joshua / ROYIANS. cuepoint.</desc>
<rect x="0" y="0" width="580" height="304" fill="#202622" />
<text x="28" y="37" font-family="'Courier New',monospace" font-size="13" fill="#b0b6a8" letter-spacing="1">01 / CREATIVE TOOLS</text><text x="548" y="39" font-family="'Trebuchet MS',Verdana,sans-serif" font-size="24" fill="#b0b6a8" text-anchor="end">↗</text><path d="M28 56H552" stroke="#414b42" stroke-width="1" /><text x="26" y="117" font-family="Georgia,'Times New Roman',serif" font-size="48" fill="#f0ecdf" letter-spacing="-2">Cuepoint</text><text x="29" y="148" font-family="'Courier New',monospace" font-size="13" fill="#b0b6a8" >A LOCAL-FIRST AI STUDIO</text><circle cx="440" cy="193" r="70" fill="#f08460" /><rect x="266" y="168" width="131" height="86" fill="#f0ecdf" rx="5"/><rect x="274" y="176" width="115" height="70" fill="#202622" rx="2"/><path d="M318 191L349 211L318 231Z" fill="#f08460"/><rect x="404" y="182" width="124" height="83" fill="#202622" stroke="#f0ecdf" stroke-width="2" rx="4"/><rect x="419" y="214.5" width="4" height="17" fill="#f08460" /><rect x="432" y="208.5" width="4" height="29" fill="#f08460" /><rect x="445" y="201.5" width="4" height="43" fill="#f08460" /><rect x="458" y="211.5" width="4" height="23" fill="#f08460" /><rect x="471" y="197.0" width="4" height="52" fill="#f08460" /><rect x="484" y="208.5" width="4" height="29" fill="#f08460" /><rect x="497" y="204.0" width="4" height="38" fill="#f08460" /><rect x="510" y="214.5" width="4" height="17" fill="#f08460" /><g transform="translate(248 224)" fill="#9fc0d0"><path d="M0 -15L3.45 -3.45L15 0L3.45 3.45L0 15L-3.45 3.45L-15 0L-3.45 -3.45Z"/></g><text x="29" y="271" font-family="'Courier New',monospace" font-size="12" fill="#b0b6a8" >STORY → SOUND</text>
</svg>
