<svg xmlns="http://www.w3.org/2000/svg" width="580" height="304" viewBox="0 0 580 304" role="img" aria-labelledby="title desc">
<title id="title">Dicha — A LITTLE ROOM FOR YOUR LIFE</title>
<desc id="desc">Original geometric artwork for Joshua / ROYIANS. dicha.</desc>
<rect x="0" y="0" width="580" height="304" fill="#202622" />
<text x="28" y="37" font-family="'Courier New',monospace" font-size="13" fill="#b0b6a8" letter-spacing="1">03 / EVERYDAY LIFE</text><text x="548" y="39" font-family="'Trebuchet MS',Verdana,sans-serif" font-size="24" fill="#b0b6a8" text-anchor="end">↗</text><path d="M28 56H552" stroke="#414b42" stroke-width="1" /><text x="26" y="117" font-family="Georgia,'Times New Roman',serif" font-size="48" fill="#f0ecdf" letter-spacing="-2">Dicha</text><text x="29" y="148" font-family="'Courier New',monospace" font-size="13" fill="#b0b6a8" >A LITTLE ROOM FOR YOUR LIFE</text><path d="M335 164L424 123L532 175V247L442 289L335 235Z" fill="#a9bd96" opacity=".18"/><path d="M335 235L424 193L532 247L442 289Z" fill="#a9bd96" opacity=".4"/><path d="M424 123L424 193" stroke="#a9bd96" stroke-width="2" /><rect x="356" y="172" width="37" height="42" fill="#202622" stroke="#a9bd96" stroke-width="2"/><path d="M374 172L374 214" stroke="#a9bd96" stroke-width="2" /><path d="M356 193H393" stroke="#a9bd96" stroke-width="2" /><rect x="426" y="218" width="51" height="23" fill="#f08460" /><rect x="435" y="207" width="51" height="13" fill="#e5c777" /><rect x="483" y="186" width="18" height="32" fill="#a9bd96" /><circle cx="493" cy="178" r="15" fill="#a9bd96" /><g transform="translate(278 221)" fill="#f08460"><path d="M0 -15L3.45 -3.45L15 0L3.45 3.45L0 15L-3.45 3.45L-15 0L-3.45 -3.45Z"/></g><text x="29" y="271" font-family="'Courier New',monospace" font-size="12" fill="#b0b6a8" >OBJECTS → STORIES</text>
</svg>
